<svg xmlns="http://www.w3.org/2000/svg" viewBox="0 0 1024 1024" width="1024" height="1024">
  <path d="M 156 189 L 148 198 L 141 216 L 139 259 L 139 749 L 140 772 L 145 783 L 153 791 L 162 796 L 183 801 L 249 802 L 272 798 L 284 793 L 295 784 L 300 776 L 303 766 L 304 394 L 438 540 L 612 724 L 621 729 L 631 731 L 646 728 L 663 715 L 694 684 L 702 673 L 705 664 L 705 653 L 698 639 L 558 482 L 464 371 L 306 191 L 298 185 L 282 178 L 249 175 L 190 177 L 169 182 Z" fill="#ffffff"/>
  <path d="M 750 176 L 740 178 L 726 184 L 711 196 L 518 418 L 587 497 L 606 516 L 718 394 L 719 395 L 720 769 L 726 782 L 734 790 L 742 795 L 754 799 L 775 802 L 840 801 L 858 797 L 871 790 L 880 778 L 883 765 L 882 219 L 879 207 L 873 196 L 860 185 L 847 180 L 832 177 L 797 175 Z" fill="#ffffff"/>
  <path d="M 417 534 L 326 637 L 319 648 L 317 656 L 320 672 L 330 686 L 367 722 L 378 729 L 386 731 L 399 730 L 409 725 L 502 625 Z" fill="#ffffff"/>
</svg>